<svg xmlns="http://www.w3.org/2000/svg" viewBox="0 0 64 64" role="img" aria-label="HIVE neural brain mark">
  <defs>
    <linearGradient id="left" x1="8" y1="52" x2="31" y2="10" gradientUnits="userSpaceOnUse">
      <stop stop-color="#1688ff"/>
      <stop offset="1" stop-color="#28dcf5"/>
    </linearGradient>
    <linearGradient id="right" x1="34" y1="10" x2="57" y2="52" gradientUnits="userSpaceOnUse">
      <stop stop-color="#58f2d0"/>
      <stop offset="1" stop-color="#21d8a7"/>
    </linearGradient>
  </defs>
  <rect width="64" height="64" rx="14" fill="#061126"/>
  <path d="M29.5 9.5C19 10.3 10.4 19.6 9.4 31.7 8.4 43.7 16.2 53.7 28.5 55.2c1.1.1 2-.8 2-1.9V11.4c0-1.1-.9-2-2-1.9Z" fill="none" stroke="url(#left)" stroke-width="3" stroke-linecap="round"/>
  <path d="M35.5 9.5C46 10.3 54.6 19.6 55.6 31.7c1 12-6.8 22-19.1 23.5-1.1.1-2-.8-2-1.9V11.4c0-1.1.9-2 2-1.9Z" fill="none" stroke="url(#right)" stroke-width="3" stroke-linecap="round"/>
  <g fill="none" stroke="url(#left)" stroke-width="2.4" stroke-linecap="round" stroke-linejoin="round">
    <path d="M15 29.5 22 24l7 4.5M16.5 39l7-4 6 5M20 18.5l6 4.5M22 47l6 4"/>
  </g>
  <g fill="none" stroke="url(#right)" stroke-width="2.4" stroke-linecap="round" stroke-linejoin="round">
    <path d="m49 29.5-7-5.5-7 4.5M47.5 39l-7-4-6 5M44 18.5 38 23M42 47l-6 4"/>
  </g>
  <g fill="#32cff2">
    <circle cx="15" cy="29.5" r="3"/><circle cx="22" cy="24" r="3"/><circle cx="16.5" cy="39" r="3"/><circle cx="23.5" cy="35" r="3"/><circle cx="20" cy="18.5" r="3"/><circle cx="22" cy="47" r="3"/><circle cx="28.5" cy="28.5" r="3"/>
  </g>
  <g fill="#48e7bf">
    <circle cx="49" cy="29.5" r="3"/><circle cx="42" cy="24" r="3"/><circle cx="47.5" cy="39" r="3"/><circle cx="40.5" cy="35" r="3"/><circle cx="44" cy="18.5" r="3"/><circle cx="42" cy="47" r="3"/><circle cx="35.5" cy="28.5" r="3"/>
  </g>
</svg>
